<svg class="svg-icon" style="width: 1em;height: 1em;vertical-align: middle;fill: currentColor;overflow: hidden;" viewBox="0 0 1024 1024" version="1.1" xmlns="http://www.w3.org/2000/svg"><path d="M513.94 68.97c-246.39 0-446.84 198.8-446.84 443.16s198.8 443.16 443.16 443.16c246.39 0 446.84-198.8 446.84-443.16S758.3 68.97 513.94 68.97zM278.96 810.48c2.42-26.61 12.38-67.73 35.56-75.2 14.22-4.6 29.08-8.84 43.64-13.02 34.03-9.73 66.19-18.93 89.11-31.67 16-8.88 23.96-27.43 19.36-45.11-4.55-17.47-20.34-29.66-38.5-29.66h-0.12c-25.98 0.51-38.7-4.52-40.84-6.19-5.56-5.32-5.77-7.25-1.57-19.76l10.27-30.84-14.08-4.71c0.36-0.64 0.71-1.25 1.05-1.84 10.87-19.08 24.41-42.82 27.75-64.7 7.92-51.81 25.05-114.13 45.47-136.6 21.64-23.78 42.8-23.53 55.3-23.51l2.64 0.02c14.94 0 60.47 5.32 73.29 28.96 15.14 27.9 25.44 67.09 34.52 101.69 9.96 37.88 17.16 65.27 30.5 81.64 4.71 5.77 7.99 10.87 10.11 14.78-8.2 9.75-11.5 23.21-7.85 36.23 3.52 12.51 2.46 20.39 0.38 22.36-21.1 7.36-43.72 3.84-43.74 3.84l-20.66-3.6-11.82 17.32c-6.52 9.54-7.83 22.07-3.5 33.47 7.97 21.03 32.78 39.94 127.99 63.91 23.59 5.92 45.67 38.56 52.32 73.07-66.4 55.32-151.94 88.8-245.3 88.8-87.14 0-167.27-29.94-231.28-79.68z m528.34-61.47c-18.28-41.6-50.84-74.5-88.18-83.89-6.53-1.63-12.57-3.22-18.19-4.77 17.22-16 24.41-40.74 19.97-70.27 3.85-4.85 6.68-10.54 8.25-16.77 6.74-26.63-10.62-55.2-26.22-74.3-4.88-6.83-12.53-35.95-18.12-57.21-10.02-38.14-21.38-81.36-40.26-116.17-33.24-61.29-120.68-63.04-132.63-63.07-17.25 0.06-62.79-0.51-104.02 44.81-38.63 42.48-56 133.44-61.68 170.61-1.52 9.94-12.6 29.38-19.94 42.25-10.83 18.99-17.99 31.54-17.37 45.64 0.43 10.03 4.04 18.74 9.36 25.82-2.28 17.87 0.25 42.42 23.89 65.02 0.66 0.61 1.32 1.23 2.01 1.84-1.31 0.36-2.63 0.74-3.94 1.12-15.24 4.37-30.81 8.82-45.71 13.63-41.31 13.33-61.56 50.03-71.58 83.87-56.43-66.06-90.72-151.56-90.72-245.04 0-208.45 171.24-378.03 381.72-378.03 208.45 0 378.03 169.59 378.03 378.03 0.01 89.65-31.81 172-84.67 236.88z" fill="#666666" /></svg>